<svg xmlns="http://www.w3.org/2000/svg" xmlns:xlink="http://www.w3.org/1999/xlink" viewBox="0 0 1440 1440"><defs><style>.cls-1{fill:#554748;}.cls-2{fill:#d88a79;}.cls-3{fill:#231f20;}.cls-4{fill:#565756;}.cls-5{fill:#290f0d;}.cls-6{fill:#645456;}.cls-7{fill:#bc786d;}.cls-8{fill:#6c6c6c;}.cls-9{fill:#615255;}.cls-10{fill:#f2a690;}.cls-11{fill:#fff;}.cls-12{fill:#f9b398;}.cls-13{fill:#4d4d4d;}.cls-14{fill:#d88a78;}.cls-15{fill:#3d7989;}.cls-16{fill:#636364;}.cls-17{fill:#534848;}.cls-18{fill:#574a4b;}.cls-19{fill:#616262;}.cls-20{fill:#9c9a99;}.cls-21{fill:#483a3c;}.cls-22{fill:#b66f63;}.cls-23{fill:#d68c77;}.cls-24{fill:#584849;}.cls-25{fill:#574a4a;}.cls-26{fill:#594b4d;}.cls-27{fill:#488598;}.cls-28{fill:#3d6871;}.cls-29{fill:#4b4b4b;}.cls-30{fill:#d68a77;}.cls-31{fill:#fab166;}.cls-32{fill:#484f57;}.cls-33{fill:#4a4f58;}.cls-34{fill:#58595b;}.cls-35{fill:#305d6b;}.cls-36{fill:#5488a7;}.cls-37{fill:#666;}.cls-38{fill:#646464;}.cls-39{fill:#656665;}.cls-40{fill:#6a6a69;}.cls-41{fill:#f1a68f;}.cls-42{fill:#ea9987;}.cls-43{fill:#5f5752;}.cls-44{fill:#7a7b8d;}.cls-45{fill:#8f6d6a;}.cls-46{fill:#7c7c8f;}.cls-47{fill:#615550;}.cls-48{fill:#75615e;}</style></defs><g id="Layer_2" data-name="Layer 2"><image width="8000" height="3599" transform="translate(0 0) scale(0.18 0.4)" xlink:href="IMG's/9.jpg"/></g><g id="Layer_1" data-name="Layer 1"><path class="cls-1" d="M385.11,660.31a33.6,33.6,0,0,1,20.64-7.89c10.76-.41,21.49-1.86,32.23-2.87,2.85.36,2.64,2.82,3,4.68.69,3.9,1.3,7.84,1.7,11.78a11,11,0,0,0,4.32,7.84c1.15.92,2.36,1.77,3.41,2.79,4.28,4.14,7.55,4.89,3.45,12.57-1.21,2.28-.09,4.27,1.08,6.19,11.59,18.92,23,38,34.57,56.89,5,8.22,10.07,16.41,14.77,24.84-1.62-3-1.15-5.86,0-8.87,5.23-13.74,10.26-27.55,15.47-41.28.79-2.08,2-4.48,0-6.17-6.7-5.6-7.4-13.22-7.82-21.08-.26-5,0-10-.84-15a3.1,3.1,0,0,1,1.12-3.17c10.42,12.18,20.64,24.84,26.16,39.83,3.78,10.29,6.49,21.15,10.19,31.58a548.15,548.15,0,0,0,21.25,51.14c1.2,2.52,2.58,3.58,5.55,3.73,28.61,1.4,57.22,2.37,85.85,2.56.1.12.28.24.27.34-.77,8.68-.14,17.36-.14,26-1,5.48-1.83,11-3.57,16.33-.69,2.12-1.67,3-4.07,2.83-27.84-1.75-55.67-3.55-83.32-7.57-6.51-.95-11.64-3.11-16.3-8.08-8.42-9-17.66-17.18-26.69-25.83-4.5,41.94-8.09,84.5-9,127.26-1.9,1.73-4.12,1.16-6.25.76-11.18-2.09-22.42-3.83-33.69-5.42-12.51-1.44-25.07-2.48-37.57-4-2.23-.82-3.1-2.92-4.35-4.66-3.11-4.34-5.54-9.2-9.77-12.68-.09-.12-.26-.28-.23-.36,2.39-5.84-.7-11-2.26-16.24q-6.58-22.12-13.68-44.11c-.81-2.51-1.75-5-1.14-7.73,2.93-19.42,5.36-38.88,6.81-58.46.77-10.31-1.05-20.11-4.3-29.79a98.66,98.66,0,0,1-4.2-15.69c-1.09-7.16,2.29-13.51,4-20.11a15.68,15.68,0,0,0-1.23-12.17c-7.73-14.68-16.17-29-23.71-43.75C385.64,665.18,384.12,663,385.11,660.31Z" transform="translate(0 0)"/><path class="cls-2" d="M879.92,1147.65c-.76-7.43-1.39-14.87-2.29-22.28-2.79-23.18-7.39-46.06-11.14-69.08-5.55-34-11.46-68-17.22-102-1-6.25.7-12.26,1.64-18.33,1.65-10.72,3.46-21.42,5.21-32.13a8.78,8.78,0,0,1,1.4-.94c4.92-1.25,10-.93,14.86-.44a172,172,0,0,0,18,.63c11.87,0,23.7,1.07,35.57,1.24a27.65,27.65,0,0,0,6,.93c4.91.09,5.87,1.3,4.88,6.29-1.39,7-3.09,14-4.79,21-2.39,9.81-4.56,19.67-7,29.48-3.59,5.54-2.81,11.78-2.82,17.88,0,27.74.16,55.49-.12,83.23a65,65,0,0,0,3.3,21.81c3.54,9.82,7.21,19.59,10.8,29.38a22.81,22.81,0,0,1,1.73,9.9c-1.44,16.09-2.17,32.23-3.19,48.34-1.16,18.46-3.16,36.86-3.81,55.35a73.43,73.43,0,0,1-1,7.86c.26,6.51-.74,12.92-1.27,19.38-1.12,3.45-3.78,4.12-7,3.91-12.12-.82-24.25-1.47-36.39-1.64-1-.12-2-.29-3-.43-1.35-.48-2.77-.71-4.16-1.06-3.55-1.81-2.51-4.56-1.49-7.31,2.28-7.11,1.24-14.61,2.61-21.83,1.5-4.56.58-9.35,1.33-14,.68-14,1.24-28,.62-42-.37-8.31.62-16.63-.73-24.24.33-1.24-.68-.63-.1-.51.13,0,.13.17.11.43A1.74,1.74,0,0,1,879.92,1147.65Z" transform="translate(0 0)"/><path class="cls-3" d="M440,931.82c12.92,1,25.82,2.2,38.67,4,2.73,1.29,2.46,3.87,2.35,6.13-.34,6.89-.55,13.79-1,20.66-2.05,31.79-4.42,63.55-8.78,95.13-1.71,12.39-5.18,24.41-8.14,36.54-.84,3.42-1.91,6.79-2.16,10.34-.07,1-.18,2.13-1.62,2.2-3,4.21-3.1,9.34-4.3,14.06-5.32,20.89-10.24,41.88-15.31,62.82q-7.87,32.49-15.79,65c-.72,3-1.68,5.9-2.54,8.85-1.46,1.13-3.08.7-4.61.34a119.74,119.74,0,0,0-30.36-3.08c-2,.06-4.14.13-5.71-1.57,2.61-21.92,5.29-43.84,7.83-65.78,2.2-19,4.18-38.09,6.37-57.12s4.61-38.33,6.84-57.5a150.8,150.8,0,0,0,.41-26.29c-.68-11.86-.16-23.79-.27-35.69q-.35-37.63-.8-75.28c3,3.9,5.74,2.9,8.36-.5a2.1,2.1,0,0,1,1.6-.61c2.25.93,2.41,3.19,3,5.06,1.06,3.27,2.79,3.65,5.59,1.94,4.86-3,10.07-5.31,15-8.1C436.27,932.41,437.87,931.19,440,931.82Z" transform="translate(0 0)"/><path class="cls-4" d="M775.74,1182.71c.07,1.16.22,2.33.22,3.5q0,59,0,118c0,2.53.26,5-3.55,3.81-1.18-.92-2.55-.51-3.83-.51q-87.06,0-174.11,0c-1.28,0-2.65-.39-3.84.49-1.39-.53-.83-1.73-.83-2.64q0-60.47,0-120.93a12.82,12.82,0,0,1,.23-1.73c1.55-1.19,2.83-.13,4,.67,23.91,16.58,48.26,32.52,72.21,49a7,7,0,0,1,2.53,2.41,3.5,3.5,0,0,1,.18,1.36c.1,4.54-1.44,9.19,1,13.54,1.61,1.43,3.61,1.06,5.47,1.08,5.73.06,11.46,0,17.18,0,3,0,4.17-1.21,4.19-4.2,0-3.94-.48-7.93.49-11.84.44-1.38,1.67-2,2.75-2.71,23.5-16.06,47.09-32,70.62-48C772.15,1183.1,773.57,1181.43,775.74,1182.71Z" transform="translate(0 0)"/><path class="cls-3" d="M926.9,905.82c-15.22-.41-30.44-.79-45.66-1.24-8-.24-16.09-.6-24.13-.9-1.24-1.86-.87-4-.87-6q0-32.77,0-65.54c0-.48,0-1,0-1.47,1.85-5.44,6.21-9.18,9.67-13.44,14.25-17.53,28.17-35.32,42.53-52.76,11.66-14.15,22.9-28.64,34.74-42.64,6.46-7.64,7.55-16.55,6.75-26.06-.48-5.72-2.72-11.08-3.25-16.79-.1-1.08-.61.54-1,.06-2.74-2.54-2.44-6.18-3.32-9.34-2.44-8.67-2.42-8.83-11.47-7.8-8.6,1-17.21,1.86-25.8,2.94-3.22.4-5.1,1.89-6.67,4.83-9.09,17-17.59,34.21-26.51,51.25-.75,1.43-1.37,3-2.63,4-2.11,1.68-2.18.37-1.74-1.39.38-9.36,2.4-18,7.94-26,8.15-11.83,15.36-24.33,23-36.54a7.72,7.72,0,0,1,4.22-2.13q18.69-3.57,37.39-7.21c1.75-.34,3.47-.51,5.06.56,9.61,9.06,19.17,18.16,28.85,27.13a8.28,8.28,0,0,1,3,6.87c-.37,10.83.51,21.68-.66,32.5-1.8-1.35-1.61-3.36-1.65-5.23a131.37,131.37,0,0,1,.84-21.08c.2-1.4.08-2.73.15-3.1,0,7.79-2,16.28-3.55,24.83-5.7,31.34-11.69,62.62-17.43,94-2.27,12.42-5.38,24.73-4.29,37.49,1.53,18,.46,36.1,1,54.14.06,2,.38,4.17-1.61,5.64a19,19,0,0,1-13.27,1C933.42,905.39,930.09,906.44,926.9,905.82Z" transform="translate(0 0)"/><path class="cls-5" d="M459.29,1106.8c.81-11.39,4.88-22.07,7.32-33.1,2.92-13.14,4.5-26.45,5.84-39.8,1.47-14.66,2.87-29.33,4.29-44,.38-3.92.46-7.87.78-11.79,1-12.82,1.37-25.69,2-38.54a5.85,5.85,0,0,0-.87-3.78c11.73,1.34,23.37,3.3,35,5.55,1.57.3,3.11.86,4.74.42q.95,33.45,1.91,66.89c.45,14.81.77,29.63,1.61,44.42.93,16.26-1.91,32.16-3.92,48.14-2.43,19.34-5,38.65-7.54,58q-4.17,32-8.32,64.07c-.3,2.31-.32,4.67-.46,7-1.26,1.72-3.24,1.87-5.07,2.25-11.18,2.32-22.3,4.85-33.48,7.16-1.83.38-3.72,1.06-5.45-.37.49-18.32,1.21-36.64,1.41-55C459.31,1158.49,459.22,1132.64,459.29,1106.8Z" transform="translate(0 0)"/><path class="cls-6" d="M411,934.79l-6.69,7.27c-1.2-2.44-2.21-4.48-3.21-6.53a15.78,15.78,0,0,0-2.71-6.14c-3.06-2.81-3.14-6.67-3.62-10.38-6.12-14.4-12.3-28.78-18.36-43.22-8.67-20.66-17.09-41.43-25.94-62-2.67-6.21-4.38-12.35-3.76-19.11.38-4.21-.52-8.48.48-12.67,1.11,6.23.13,12.5.55,18.74-.45-6.5.48-13-.46-19.52,1.79-14.58,5.24-28.84,8.76-43.06,6.05-24.39,13.48-48.32,24.8-70.87,1.22-2.42,2-5.19,4.32-7,5.95,14.05,14.09,26.94,21.3,40.32,2.5,4.64,5.17,9.2,7.39,14,1,2.25.47,4.8-.3,7.27-1.7,5.42-3.15,10.91-4.55,16.41a18.69,18.69,0,0,0-.12,4.31c-3.94,16.39-8.92,32.51-13.21,48.82a11.21,11.21,0,0,0,.19,6.49c4.39,13.41,8.14,27,12.66,40.37,1.09,3.24,1.09,6.62,2.15,9.81-.7,4.6,1.83,8.5,3,12.6,4.82,16.34,9.86,32.62,15.47,48.69,1.15,3.28-1.83,3.82-1.7,5.94a1.12,1.12,0,0,1,.16,1.22C422.7,923.22,417.8,929.89,411,934.79Z" transform="translate(0 0)"/><path class="cls-3" d="M867.55,723.57c.27.77.25,2.08,1.2.23,5.46-10.65,11-21.26,16.51-31.89,4.52-8.73,8.83-17.57,13.6-26.16,1.8-3.26,5.88-2.2,8.86-2.62,9.75-1.37,19.6-2,29.38-3.22,3-.35,4,1.18,4.66,3.44,1.51,5.16,2.93,10.34,4.39,15.52,3.92,9.77,2.56,19-3.5,27.35-15.12,20.74-30.89,41-46.29,61.56-12.14,16.19-24.31,32.37-36.68,48.4a11.74,11.74,0,0,0-1.59,2.63c-1.16,4.12-.16,8.48-1.43,12.59q0,33.48,0,67c0,1.56.56,3.23-.54,4.68-.75-1.54-.4-3.18-.4-4.76q-.08-37.85-.09-75.69c0-4.8,0-4.8-4.46-2.91a2.4,2.4,0,0,0-.4.17c-10.4,6.1-21.58,7.25-33.43,6.26-13.14-1.09-26.35-1.25-39.53-1.85a36.65,36.65,0,0,1-3.88-.57c2.28-1.14,4.54-.32,6.71-.59-4.42.14-8.93-.38-13.47.39l-12.17.07c-7.66,2.16-11,.21-12.41-7.59-1.08-6.1-1-12,4.87-16.09,1.81-2.12,4-2.88,6.89-3,25.49-1.53,51-3.29,76.45-4.82,2.64-.16,3.87-1.22,5-3.37Q850.31,760,865.1,731.47C866.43,728.91,866.59,726.15,867.55,723.57Z" transform="translate(0 0)"/><path class="cls-7" d="M926.9,905.82c7.66-.24,15.36.24,23-1.26,2.65-1.27,5.26-2.91,8.21-.7,1,10.15.47,20.32.28,30.49a3.2,3.2,0,0,0,.2,1.24,55.45,55.45,0,0,1-1.91,13.48c-3.1,12.8-2,25.67-1.34,38.56,1.08,21,2.39,41.94,3.26,62.92.47,11.22,2.6,22.19,4.84,33.08s1.72,21.58,1.08,32.41c-1.31,22.28-2.7,44.56-4,66.84q-1.26,21.12-2.48,42.23c-.1,1.74-.43,3.51.38,5.2.14,5.2-.9,7.08-5.88,8.72-8.4,2.79-16.38,1.52-23.8-3.3,1.77-17.72,2-35.56,4.21-53.25.6-4.77.4-9.62.82-14.45,1-11.79.31-23.81,2.24-35.42,2.11-12.73-3.42-23.13-7.17-34.22-1.46-4.29-3.08-8.53-4.63-12.8-.53-6.36-1.76-12.63-1.72-19.1.18-28.57.12-57.15,0-85.73,0-6.58.07-13.12,1.67-19.54,1.57-9.68,4.29-19.08,6.47-28.62,1.66-7.25,3.24-14.53,5.09-21.74.89-3.49.11-4.87-3.65-4.45C930.35,906.59,928.49,907,926.9,905.82Z" transform="translate(0 0)"/><path class="cls-8" d="M775.74,1182.71c-5.53,2.1-9.79,6.22-14.63,9.37-14,9.11-27.69,18.67-41.48,28.1q-9.06,6.19-18,12.57a5.29,5.29,0,0,1-3.24,1.14c-1.73-1.39-1.55-3.42-1.61-5.28-.06-2.51-1-3.77-3.69-3.78-6.46,0-12.93,0-19.39,0-2.9,0-3.83,1.43-3.85,4.1,0,2,.23,4.17-1.42,5.81-5.65-2.19-10.16-6.25-15.12-9.52-18.19-12-36.15-24.37-54.19-36.6-3-2-5.48-4.79-9.06-5.88,1.14-1.41,2.71-.71,4.06-.71,11.35-.06,22.71,0,34.06,0,1.58,0,3.22.26,4.7-.59.77,1.23-.08,1.66-1,1.65-12-.14-23.93.56-35.89-.36,0,0-.08-.17-.12-.23.55,1.36,1.74.62,2.58.62,10.43.07,20.87,0,31.3.1,2.81,0,4-.61,3.78-3.63-.38-4.23.39-8.5-.39-12.73,1.18-15.44,15.25-29.51,30.81-30.83,12.92.6,25.84.63,38.77,0,16.86,1.22,30.91,16.41,31.74,34.23.17,3.77-1.64,8.8.75,11,2.74,2.51,7.81.72,11.85.79,8.2.12,16.4,0,24.6.06C773,1182,774.58,1181.33,775.74,1182.71Z" transform="translate(0 0)"/><path class="cls-3" d="M910,529.78c25.33-.54,43.85,17,44.09,42.26.18,18.31-3.41,35.78-13.28,51.57-1.84.87-3.5,0-5.05-.74-10.59-5.08-21.07-10.38-31.56-15.66a10.64,10.64,0,0,1-1.28-6c.43-2.59,1.32-5.14.92-7.82a10,10,0,0,0-3.55-6.4c-1.14-1-2.39-2-4-1.24s-1.71,2.36-1.59,3.81c.34,4.1.84,8.18,1.3,12.26.27,2.41,1,5-1.46,6.9-3.94.64-5-2.56-6.18-5a144.42,144.42,0,0,1-9.49-24.52c-.39-1.41-.77-2.82-1.25-4.2-1.06-3.05-2.66-5.75-6.11-6.22s-5.5,2-7.5,4.48c-1.45,1.75-1.59,4.52-4.18,5.36-4.57-1.29-7.48-4.52-9.65-8.48-3.31-6-4.71-12.62-5.42-19.37-.42-4,2.13-6.57,5.11-8.63a31.76,31.76,0,0,1,13.39-5.34c10-1.48,19.59-5,29.58-6.61a64.89,64.89,0,0,1,6.56-.4A28.2,28.2,0,0,0,910,529.78Z" transform="translate(0 0)"/><path class="cls-9" d="M884.45,1255.9c12-.17,24,.94,36,1.41,2.59.1,6,1.9,7.14-2.5,2,5.13,2.93,10.54,3.91,15.9.56,3.09,1.32,6.24.91,9.42,2.89.84,6.5-1.73,8.54,2.11-2.85.57-6.64-1.48-8.36.56s.29,5.58.45,8.48c.23,4.39.63,8.78,1.07,13.16a2.85,2.85,0,0,1-1.94,3.39c-3.77,1.62-7.38,3.14-11.75,2.89-13.14-.76-26.31-2.25-39.48-.19-6.23-.85-12.5-.33-18.74-.33-9.61,0-19.23-.41-28.83.25l-23.83-13.06c4.3-9.17,10.07-15.19,20.62-16.34,6.55-.71,13-3.4,19-6.59a4.55,4.55,0,0,1,2.67-2.16,111.67,111.67,0,0,0,26.56-17c1.25,0,2.52-.21,3.64.56C882.75,1257,883.6,1256.34,884.45,1255.9Z" transform="translate(0 0)"/><path class="cls-10" d="M459.81,639.89q1.63-7.92,3.28-15.84c1.84-1.32,3.33,0,4.89.65,5.06,2.19,8.45-.18,7.87-5.71-.49-4.66-1.2-9.31-1.8-14-.33-2.61-.72-5.25.41-7.79,2-1.62,2.57.33,3.13,1.45,1.12,2.24,2.55,4.26,3.82,6.39,1.81,3,3.93,4.63,7.51,3.22,2.08,1.61,4.21,1.25,6.09-.18s.69-3.51.2-5.25a192.12,192.12,0,0,1-6.42-39.42c-.35-5.43.94-7.13,6-8.75,13.33-4.28,24.66,2,29.55,16.48,1.75,3.71,3.48,7.43,5.27,11.13,2.31,4.8,4.14,9.64,3.68,15.19-.42,5,3.49,8.28,5.86,12,2,3.2,2.54,5.12-1.6,6.27-3.53,1-4.32,3.29-4.51,6.83-.43,7.89-1.54,15.75-2.41,23.62-.54,4.79-1.94,5.89-6.64,4.83a16.63,16.63,0,0,1-6.07-2.47c-4.4-3.22-7.92-1.38-11.5,1.34-4.32,3.29-6.05,8.45-9.19,12.6a.76.76,0,0,1-.93.69c-11.92-4.6-23.61-9.78-35.42-14.68a5.59,5.59,0,0,1-3.08-2.37C457,643.59,457.91,641.59,459.81,639.89Z" transform="translate(0 0)"/><path class="cls-11" d="M512.18,681.61c.61,9.38,1.3,18.75,1.79,28.13.21,4,3.31,6.16,5.65,8.56,2.8,2.87,3,5.28,1.54,8.9-5.53,14.07-10.53,28.34-16.08,42.4-1.61,4,.8,7.39.79,12.21-4.55-7.49-8.58-14.1-12.59-20.71-13-21.45-26-43-39.21-64.31-2.26-3.65-3-6.72-.51-10.31,1.87-2.66,1.5-4.92-1.42-6.51-9.54-5.18-11.87-14-12.32-23.91-.1-2.25.11-4.72-1.84-6.51.26-8,7.63-8.56,12.42-11.79a2.93,2.93,0,0,1,3.66.41c.84,3.15,3.34,5.46,4.33,8.55a33.67,33.67,0,0,1,4.93,6.16c5.59,8.8,10.67,17.89,16,26.83,8.25,13.77,10.86,29.28,14.26,44.37-1.14-3.17.35-6.46.34-9.78,0-15.69,1.6-31.32,1.82-47,0-1.6-.09-3.26,1.18-4.55l.25-.2C502.35,668.77,508.28,674.39,512.18,681.61Z" transform="translate(0 0)"/><path class="cls-3" d="M475.23,596.84c-.51,7.37.79,14.62,2.2,21.75.75,3.85-1,5.86-3.18,8-2.34,2.31-4.59.46-6.81-.6-1.43-.68-2.57-2-4.35-1.91-4.38-4.1-10.23-6.44-14-11.25-10.57-13.47-14.58-28.47-9.93-45.29A15.36,15.36,0,0,1,441.9,562c8.72-10.9,18.14-20.81,33.26-22.21,12.8-1.18,25.53-.73,38,2.57,8.28,2.2,11.39,7.08,11.28,15.58-.06,4.4-.07,8.81-.1,13.21-3.86-4.14-5.68-9.8-10.67-13.16-6.19-4.15-15.31-4.71-21.68-1-2.39,1.4-1.92,3.45-1.8,5.38.91,14.47,2.74,28.81,7.28,42.63,1.59,4.83-2,4.56-4.43,5.66s-4.62,1.29-4.9-2.33c-2-2.92-.93-6.24-1.15-9.38-.19-2.92.24-5.88-.29-8.78-.49-2.74-1.8-5.29-4.81-5.53s-3.5,2.58-4.51,4.67C476.21,591.74,477.18,594.7,475.23,596.84Z" transform="translate(0 0)"/><path class="cls-1" d="M457.61,1239.3q20.07-4.26,40.13-8.52c1.27-.27,2.58-.35,3.87-.52,5.26,3.48,10.62,6.83,15.77,10.47,11.08,7.83,24.3,9.16,36.91,12.27,3,.73,4.15,2,4.55,4.81.46,3.19,1.14,6.36,1.89,9.5.51,2.14.17,3.25-2.33,3.34-9.83.36-19.63,1.56-29.5,1.08a285.92,285.92,0,0,0-32.6,0c-13.53.19-26.93-1.37-40.34-2.87-1.55-.17-3.18-.21-2.88-2.75C454.17,1257.07,454.26,1247.92,457.61,1239.3Z" transform="translate(0 0)"/><path class="cls-3" d="M957.69,904.07l-7.84.49c1.15-1.87-.11-3.71-.11-5.58,0-18.94.42-37.89-.9-56.79-.66-9.51,1.3-18.68,3-27.87,4.11-22,8.34-44,12.17-66,3.25-18.72,7.17-37.33,10.74-56,.44-2.28.57-4.61,1.6-6.93v33.34c0,24.68-1.28,49.32-3,73.92-2.23,31.93-5.59,63.74-11.23,95.27-.18,1-.53,2-.8,2.94a1.62,1.62,0,0,1-.46-1.91c.49,2.66-1.46,5.54-.69,8.69-.4,2.08-.81,4.15-1.22,6.23-.11.12-.22.24-.34.35A1.08,1.08,0,0,1,957.69,904.07Z" transform="translate(0 0)"/><path class="cls-6" d="M380.67,1253.19a122.49,122.49,0,0,1,40.68,4.31,164.12,164.12,0,0,0,22.24,39.27c2.52,3.37,1.17,7,1.27,10.57,0,1.31-1.53,1.11-2.49,1.13-5.57.13-11.13.2-16.7.3-5-1.1-10,.2-15,0-7.06-4.1-14.11-8.22-21.18-12.3a5.11,5.11,0,0,1-2.25-2.56q-4.53-10.67-9.11-21.32c-.31-3.21.13-6.44-.07-9.66C378.11,1259.49,379.6,1256.39,380.67,1253.19Z" transform="translate(0 0)"/><path class="cls-12" d="M904,601.4q.43,2.83.88,5.65a5.2,5.2,0,0,1,1.42,3.13c1.14,8.82,2.27,17.64,3.26,26.48.18,1.61.17,3.46-1,4.59-3.62,3.53-6.67,7.67-11,10.43-4,1.17-6.36,4.41-9.12,7.1-1.75,1.71-3.28,2.47-5.79,1.5-2.33-.89-3.72-1.9-3.65-4.63a44.21,44.21,0,0,0-.75-5.65c-.16-1.34-.26-2.94-1.3-3.65-4.49-3.05-6.46-7.53-7.6-12.54a2,2,0,0,0-2.59-1.71c-3.65.48-3.79-1.71-3.4-4.33.44-2.9,1-5.78,1.37-8.68.67-4.9,1.65-9.87-3-13.68-1.23-1-1.28-2.59-1.2-4.08.33-6.44-1.32-12.86-.13-19.32.19-1.07-.33-2.28-.52-3.42a18.64,18.64,0,0,1,4.5-7.87c2.18-2.24,4.54-4.23,8.05-3.36s5.62,3.28,6.53,6.89A142.55,142.55,0,0,0,889.52,603c1.08,2.18,1.84,4.72,4.69,5.38,2.18-1,4.06,3.08,6.2.52,1.43-1.73,1.08-4.12,1.51-6.23.21-1,0-3,2.15-2,.07,0,.1.23.08.35A1.93,1.93,0,0,1,904,601.4Z" transform="translate(0 0)"/><path class="cls-10" d="M897.55,651.68c1.58-3.82,4.61-6.6,7.75-8.84s3.26-4.6,2.88-7.57c-1.09-8.68-2.27-17.35-3.38-26a12.42,12.42,0,0,1,.08-2.19c1.62-.5,2.77.62,4,1.23q16,7.63,31.92,15.33a139.79,139.79,0,0,0,4.3,28.62L898.46,661C897.56,658,897.64,654.81,897.55,651.68Z" transform="translate(0 0)"/><path class="cls-12" d="M747.43,799.88a20.41,20.41,0,0,0-3.37,16.93c.91,4,2.29,6.79,7,6.4a23.56,23.56,0,0,1,3.9.35c-2.08,2.12-4.61,2.68-7.52,2.64-7.55-.09-15.09,0-22.64,0a8.46,8.46,0,0,1-5.55-.18c-8.61-3.18-17.15-6.54-26-9.13-5.95-1.74-6-2.31-5.88-7.82-.77-3.17-4.6-2.61-6-5a25.51,25.51,0,0,1,13.35-9.75c.55,2.86,2.58,1.73,4.16,1.44a143.63,143.63,0,0,1,15.58-2.5C726.16,792.46,736.67,796.54,747.43,799.88Z" transform="translate(0 0)"/><path class="cls-1" d="M940.91,1282.24c-3-1.6-6.34-.31-9.66-1,.43-9-4-17.39-3.7-26.47q.56-9.54,1.1-19.08c3.94,1,7.89,1.93,11.84,2.88a20.83,20.83,0,0,0,9.55-.18c4.51-1,7.65-3.24,8.29-8.12,3.92,12.52,4.95,25.53,6.38,38.47a13.66,13.66,0,0,1,.15,2.63c-.22,2.68,2.18,6.21-.28,7.83-3.27,2.15-7,4.31-11.4,3.84C949.1,1282.64,945,1282.51,940.91,1282.24Z" transform="translate(0 0)"/><path class="cls-10" d="M687.71,808.68c.27,1,2.79.69,1.78,1.78-3.34,3.62.43,3.76,2.1,4.35,11,3.92,22.14,7.65,33.22,11.44-.47.55-.83,1.37-1.41,1.59-14.81,5.57-29.1,13.23-45.92,10.07-5.27-1-10.77-.75-16.17-1.08-2.69-8.78-3.06-17.57-.13-26.38,2.89-2.25,6-4.28,8.61-6.79,6.44-6.13,14.68-9,22.45-12.72,4.57-2.16,1.86,2.12,2.46,3.48l-13.17,9.65C682.23,807.44,686.21,806.4,687.71,808.68Z" transform="translate(0 0)"/><path class="cls-1" d="M878.32,1255.26c-1.41,3.83-4.81,5.58-7.92,7.68-6.73,4.54-13.44,9.1-21.31,11.52-2.45-2-7.33-2.63-7.52-5.17-.2-2.71,3.14-5.61,4.68-8.56a9.52,9.52,0,0,1,7.35-5.3c7.88-1.51,15.47-4.12,23-6.82C878.37,1250.53,874.84,1253.78,878.32,1255.26Z" transform="translate(0 0)"/><path class="cls-13" d="M590.66,1308c1.29-1.45,3-.92,4.56-.92q86.34,0,172.67,0c1.55,0,3.28-.54,4.55.94-1,.07-2,.21-3.06.21q-87.61,0-175.23,0C593,1308.24,591.82,1308.09,590.66,1308Z" transform="translate(0 0)"/><path class="cls-14" d="M879.92,1147.65c.08-1.45.16-2.89.25-4.34.4,6.44,2.32,12.58,1.94,19.27a290.15,290.15,0,0,0,.14,33.36c.31,5.42,1.08,11.33-1.33,16.73-.28.46-.57.46-.85,0C880.67,1191,880.72,1169.32,879.92,1147.65Z" transform="translate(0 0)"/><path class="cls-15" d="M856.09,903q.1-26.82.23-53.64,0-9.46.12-18.91c.27-.3.49-.25.66.1q0,36.54,0,73.09l-1,.16A1.22,1.22,0,0,1,856.09,903Z" transform="translate(0 0)"/><path class="cls-16" d="M633.12,1166.81c1.66,4.84.51,9.82.68,14.74.07,2.1-1.74,2-3.21,2-12,0-24,0-36-.83h6.82c9.08,0,18.16,0,27.24,0,1.48,0,3.33.75,4.25-1.27A65.91,65.91,0,0,1,633.12,1166.81Z" transform="translate(0 0)"/><path class="cls-17" d="M833.33,1310.45a3.8,3.8,0,0,1,2.9-.72H878a3.49,3.49,0,0,1,2.86.8C865,1310.85,849.18,1311,833.33,1310.45Z" transform="translate(0 0)"/><path class="cls-18" d="M394.72,919c1.3,3.43,3,6.72,3.62,10.38-6.15.13-6.13.14-4.58-5.69C394.17,922.16,394.41,920.57,394.72,919Z" transform="translate(0 0)"/><path class="cls-19" d="M702.7,1136a186.08,186.08,0,0,1-38.77,0A353.11,353.11,0,0,1,702.7,1136Z" transform="translate(0 0)"/><path class="cls-20" d="M457.58,646.37c-1.44-2.18-2.85-4.37-4.34-6.52-.79-1.15-.22-1.49.82-1.68l5.75,1.72c-.48,2.08-.95,4.15-1.42,6.23A.5.5,0,0,1,457.58,646.37Z" transform="translate(0 0)"/><path class="cls-21" d="M496.3,1271.69c1.68-1.38,3.67-.74,5.52-.75,7.49-.08,15-.06,22.47,0,1.56,0,3.26-.51,4.61.8A319.35,319.35,0,0,1,496.3,1271.69Z" transform="translate(0 0)"/><path class="cls-22" d="M957.69,904.07a1.44,1.44,0,0,1,.77-.09c1.15,4.29.47,8.66.48,13,0,5.95.5,11.93-.32,17.88a.71.71,0,0,1-.08.74,2.89,2.89,0,0,1-.85-2.37Z" transform="translate(0 0)"/><path class="cls-7" d="M958.62,934.85q-.07-15.44-.16-30.87a.41.41,0,0,1,.5-.11C959.14,914.2,959.79,924.53,958.62,934.85Z" transform="translate(0 0)"/><path class="cls-23" d="M880.07,1212.67h.85c0,3.53,0,7,0,10.58,0,1.4.43,3.09-1.67,3.53A86.52,86.52,0,0,1,880.07,1212.67Z" transform="translate(0 0)"/><path class="cls-24" d="M347.23,781.21c1.87,6.88.25,13.85-.09,20.79V782A.74.74,0,0,1,347.23,781.21Z" transform="translate(0 0)"/><path class="cls-25" d="M410.71,1308.81a27.94,27.94,0,0,1,15,0C420.68,1308.73,415.7,1310.15,410.71,1308.81Z" transform="translate(0 0)"/><path class="cls-26" d="M378.1,1263a12.63,12.63,0,0,1,.07,9.66C376.77,1269.42,377.14,1266.2,378.1,1263Z" transform="translate(0 0)"/><path class="cls-27" d="M767.14,823.49c4.6-1.9,9.31-.16,14-.15l-7.21.35Z" transform="translate(0 0)"/><path class="cls-28" d="M960.17,897.64c-2-3,.45-5.81.3-8.85,1,.58.67,1.41.85,2.07A22.08,22.08,0,0,1,960.17,897.64Z" transform="translate(0 0)"/><path class="cls-29" d="M910,529.78a14.73,14.73,0,0,1-10.56,0A39.31,39.31,0,0,1,910,529.78Z" transform="translate(0 0)"/><path class="cls-10" d="M411,934.79l16.47-19.48c1.27-.5,1.87.38,2.44,1.24q5.06,7.63,10.1,15.28c-7.17,3.92-14.36,7.82-21.51,11.8-2.48,1.37-4.09,1-5-1.85C412.71,939.42,411.79,937.12,411,934.79Z" transform="translate(0 0)"/><path class="cls-30" d="M924.11,961.22q0,62.17,0,124.37c-1.7-6.23-3.75-12.2-3.66-19,.39-29,.2-57.92.14-86.89C920.58,973.3,920,966.83,924.11,961.22Z" transform="translate(0 0)"/><path class="cls-23" d="M879.81,1231.93v5C878.94,1235.34,879.06,1234.25,879.81,1231.93Z" transform="translate(0 0)"/><path class="cls-1" d="M884.45,1255.9a2.42,2.42,0,0,1-3.14.69c-.86-.51.37-.51.65-.77Z" transform="translate(0 0)"/><path class="cls-31" d="M668.42,1234.72c.05-.29.1-.58.13-.87.35-3.33-1.43-7.61.73-9.78,2.33-2.34,6.69-.68,10.16-.79,5-.16,10,.12,15-.08,2.83-.12,4.05.67,3.83,3.65a69,69,0,0,0,.14,7c-.07,5-.27,9.95-.15,14.93.07,2.76-.63,3.9-3.65,3.81-7.47-.2-14.94-.06-22.41-.06-1.58,0-3.36.37-3.77-1.93a45.11,45.11,0,0,1,0-15.07A.94.94,0,0,0,668.42,1234.72Z" transform="translate(0 0)"/><ellipse class="cls-32" cx="682.87" cy="1253.71" rx="16.62" ry="0.29"/><path class="cls-33" d="M668.38,1235.57q0,7.54,0,15.07A25.16,25.16,0,0,1,668.38,1235.57Z" transform="translate(0 0)"/><path class="cls-34" d="M857.12,817.46,926.21,726c4.94-6.54,9.83-13.12,14.87-19.59,5.5-7.06,6.6-15.07,5.44-23.63-.17-1.31-.25-2.63-.37-3.94a3.28,3.28,0,0,1,.18-1.29c.71-1.12.75,0,.86.34,3.73,12.45,6.76,24.94,1.6,37.76-2,5-6.1,8.54-9.35,12.63-13,16.36-26.18,32.6-39.34,48.84-10.86,13.4-21.82,26.72-32.68,40.12-3.4,4.19-6.46,8.65-10.3,12.48A34.3,34.3,0,0,1,857.12,817.46Z" transform="translate(0 0)"/><path class="cls-35" d="M857.12,817.46v12.29c0,.28,0,.56,0,.84a2.39,2.39,0,0,1-.66-.1C856.71,826.15,855.38,821.73,857.12,817.46Z" transform="translate(0 0)"/><path class="cls-36" d="M747.33,812.16c-.69-2.9-.68-4.58,1.11-7C748,807.71,747.78,809.32,747.33,812.16Z" transform="translate(0 0)"/><path class="cls-36" d="M748.85,818c-1.74.22-2.55-.32-2.56-1.72,0-.28.5-.56.77-.85Z" transform="translate(0 0)"/><path class="cls-37" d="M646.25,1182.67l74.09,0q.4.29.27.57c-.08.19-.17.29-.25.29-2.4,1.09-4.79-.1-7.19-.08-20.64.14-41.27.09-61.9,0-1.69,0-3.55.6-5-.85Z" transform="translate(0 0)"/><ellipse class="cls-38" cx="753.88" cy="1183.13" rx="24.75" ry="0.3"/><ellipse class="cls-39" cx="683.31" cy="1148.69" rx="23.49" ry="0.3"/><path class="cls-40" d="M720.36,1183.55c0-.29,0-.57,0-.86s-.06-.77-.1-1.15c-.12-6.12,0-12.27-1.66-18.24.24-1.21.88-1.67,1.49-.36a12.17,12.17,0,0,1,1.18,6.39C720.77,1174.06,722.23,1178.9,720.36,1183.55Z" transform="translate(0 0)"/><path class="cls-37" d="M646.25,1182.67c-1.91-4.29-.41-8.68,0-13v13Z" transform="translate(0 0)"/><path class="cls-41" d="M904,601.4c-1.94.4-1,2-.93,2.86.39,2.71-1.38,4.69-2,7-.52,2-1.84.81-2.71.24-1.45-.95-2.78-2.08-4.16-3.13,2.12-4.87-.61-9.62-.42-14.45a35.78,35.78,0,0,0-.58-5.22,4.38,4.38,0,0,1,2.32-4.79c1.81-1,3.43-.05,4.9.92C905.27,588.09,906.49,593.85,904,601.4Z" transform="translate(0 0)"/><path class="cls-1" d="M457.58,646.37a2.62,2.62,0,0,0,.81-.25l33.95,14.19c1.6.68,3.34,1.12,4.61,2.43,1,9.84-.58,19.63-.81,29.44-.28,12-1.11,24.06-1.71,36.18-1.65-.28-1.39-1.67-1.63-2.64-1.39-5.55-3.05-11.06-4-16.7-2.91-17.79-12.91-32.27-21.73-47.31C464.05,656.52,460.76,651.48,457.58,646.37Z" transform="translate(0 0)"/><path class="cls-42" d="M475.23,596.84c-.14-2.93-.37-5.81,1-8.64s2.31-6.37,6.29-5.34a7.46,7.46,0,0,1,5.79,7.45c.07,6-.11,12.05-.18,18.07-1.51,3.79-2.29,3.94-5,.88A51.54,51.54,0,0,1,475.23,596.84Z" transform="translate(0 0)"/><path class="cls-43" d="M524.34,582.82l-10.33-1a16.27,16.27,0,0,1,12.12.1C526.26,583.67,525.16,583,524.34,582.82Z" transform="translate(0 0)"/><path class="cls-44" d="M519.17,591c2.07-.09,4.25-1.4,5.84.68.22.28-.54,1.9-1.13,2.1C521.38,594.59,520.72,592,519.17,591Z" transform="translate(0 0)"/><path class="cls-45" d="M524.34,582.82l1.79-.9,2.53,1.08A3.86,3.86,0,0,1,524.34,582.82Z" transform="translate(0 0)"/><path class="cls-46" d="M875.87,606.93c-1.15,1.61-2.18,3.33-4.35,2.75-.8-.22-1.55-1.37-1.12-2.07C871.77,605.38,874,607,875.87,606.93Z" transform="translate(0 0)"/><path class="cls-47" d="M864.13,599.39c2.16-1.9,4.38-3.67,8.49-3.37l-7.53,4.32C864.14,600.66,863.93,600.24,864.13,599.39Z" transform="translate(0 0)"/><path class="cls-48" d="M864.13,599.39l1,1c-.76.64-1.64,2-2.51,1.08C862,600.88,863.26,599.86,864.13,599.39Z" transform="translate(0 0)"/></g></svg>